<svg id="Calque_1" data-name="Calque 1" xmlns="http://www.w3.org/2000/svg" viewBox="0 0 129.48 129.32"><defs><style>.cls-1{fill:#575757;}</style></defs><path class="cls-1" d="M333,403.45c-1,2-2.69,2.57-4.93,2.56q-26.09-.11-52.17,0c-5.48,0-4.74-.8-4.75,4.61,0,17.22,0,34.44,0,51.66,0,3.88-.83,5.28-3.1,5.3s-3.15-1.4-3.15-5.24c0-17.75-.05-35.49,0-53.23,0-2.52-.7-3.19-3.2-3.17-17.83.1-35.65.05-53.48.05-.87,0-2,.28-2.54-.16-1-.87-2.17-2.15-2.19-3.27,0-.87,1.55-1.88,2.59-2.58.47-.33,1.35-.07,2-.07h56.55c.07-1.36.17-2.45.17-3.55q0-26.22,0-52.44a22.72,22.72,0,0,1,.09-2.86,2.83,2.83,0,0,1,3.13-2.8A2.77,2.77,0,0,1,271,341a20.92,20.92,0,0,1,.11,2.86c0,17.65.06,35.31-.05,53,0,2.54.74,3.17,3.22,3.16,17.91-.11,35.83,0,53.74-.11,2.06,0,3.7.41,5,2.05Z" transform="translate(-203.49 -338.24)"/></svg>