<svg id="Calque_5" data-name="Calque 5" xmlns="http://www.w3.org/2000/svg" viewBox="0 0 161.33 188.4"><defs><style>.cls-1{fill:#575757;}</style></defs><path class="cls-1" d="M223.15,476.3a2,2,0,0,0-.5-.25c-3.59-.69-5.63-3-5.65-6.64,0-10.07,0-20.14,0-30.2v-14q0-21.51,0-43,0-13.37-.07-26.73a8.72,8.72,0,0,1,3.46-7.26q30.8-24.6,61.55-49.26c4.18-3.35,8.35-6.7,12.57-10a5.18,5.18,0,0,1,6.38.17l74.4,59.47c2.73,2.19,3.62,4.83,2.51,7.45-1.61,3.8-6,4.85-9.5,2.17-3.33-2.55-6.57-5.22-9.84-7.84q-23.88-19.15-47.77-38.3c-4-3.23-8.05-6.43-12-9.69a1.32,1.32,0,0,0-2,0q-33.09,26.55-66.21,53a3.73,3.73,0,0,0-1.64,3.12q.06,42.54.05,85.1v20.46c.53,0,.95.07,1.37.07q38.77,0,77.54,0c1.17,0,1.45-.34,1.45-1.47q-.06-19.85,0-39.68c0-1.06-.25-1.44-1.4-1.43-6.79.05-13.58,0-20.37,0h-1.3c0,.6-.08,1.1-.08,1.61,0,10.22,0,20.45,0,30.68a11.5,11.5,0,0,1-.45,3.41,5.83,5.83,0,0,1-11.35-1.87V415.65a5.58,5.58,0,0,1,5.9-6c5.48-.07,11,0,16.42,0h17.86q6.7,0,6.71,6.69,0,23.07,0,46.14c0,1.62,0,1.62,1.62,1.62h42.06c1.66,0,1.66,0,1.66-1.72q0-37.81,0-75.63a10,10,0,0,1,.16-2.26,5.6,5.6,0,0,1,6.59-4.51,5.75,5.75,0,0,1,5,5.82q0,41.9,0,83.78c0,4.45-2.2,6.46-6.89,6.46h-109a12.61,12.61,0,0,0-1.73.23Z" transform="translate(-216.97 -287.9)"/></svg>