<svg id="Calque_2" data-name="Calque 2" xmlns="http://www.w3.org/2000/svg" viewBox="0 0 386.41 465.84"><defs><style>.cls-1{fill:#575757;}</style></defs><path class="cls-1" d="M227.17,254.52H480.69c4.56,2.38,6.65,6.25,6.71,11.29,0,2.4,0,4.79,0,7.18q0,45.4,0,90.79,0,108.38,0,216.73a34.36,34.36,0,0,1-.26,4.18q-.81,6.67-7.49,7.78a27,27,0,0,1-4.4.38q-32.86,0-65.72,0h-1.77v1.8q0,56,0,112c0,1.68-.08,3.36-.23,5-.41,4.59-2.88,7.42-7.3,8.27a22.69,22.69,0,0,1-4.28.36H112.74a27.26,27.26,0,0,1-3.93-.3,7.74,7.74,0,0,1-7-6.64,26.62,26.62,0,0,1-.46-4.88q-.06-97.62-.07-195.25a14.61,14.61,0,0,0-.23-1.85V498.72c.17-1.29.34-2.58.52-3.86.65-4.73,3.25-7.8,7.5-8.49a38,38,0,0,1,6.32-.25c2,0,2,.08,2-1.81,0-7,0-13.91.06-20.87.06-4.77,2.68-8,7.28-8.92a27.87,27.87,0,0,1,5.48-.4q44.43,0,88.86,0c1.81,0,1.81,0,1.81-1.81V284.87c0-5.84-.07-11.68-.05-17.51C220.78,262,222.35,257.46,227.17,254.52ZM388.35,528.88H251c-14.15,0-28.3,0-42.45,0a15.13,15.13,0,0,1-11-4.81c-5.34-5.39-10.74-10.73-16.11-16.1a9.47,9.47,0,0,0-7-2.79L135,505.14c-4.27,0-8.55,0-12.83,0-1.1,0-1.6.25-1.6,1.54q.06,96.55,0,193.09c0,1.16.32,1.46,1.47,1.46q132.51,0,265,0c.42,0,.85,0,1.33-.05Zm79.68-255H242.08c-2.13,0-2-.3-2,2V507.4c0,.36,0,.73,0,1.08-.06.79.3,1,1.06,1q5.22,0,10.44,0c.76,0,1-.26,1.06-1,.26-3.18.42-6.38,1-9.52a51.11,51.11,0,0,1,14.54-28.69c13.73-13.5,30.13-18.66,49.16-14.93a53.05,53.05,0,0,1,42.21,47.92c.18,2.14.32,4.28.49,6.54h1.46q16.13,0,32.25,0c1.64,0,3.28.09,4.91.24,4.78.43,7.69,3,8.64,7.7a21.06,21.06,0,0,1,.42,4q0,25.13,0,50.25v1.46H468ZM136.7,473.53c0,3.89,0,7.64,0,11.39,0,.94.26,1.24,1.22,1.22q6.34-.09,12.7-.07c9.9.06,19.81.18,29.71.2A14.79,14.79,0,0,1,190.38,490a126.53,126.53,0,0,1,15.46,15.51,10.55,10.55,0,0,0,7.41,4.18c2,.18,4.07,0,6.1,0,1.06,0,1.37-.49,1.37-1.55,0-11.11,0-22.22,0-33.33,0-.43-.05-.85-.07-1.33ZM310.26,502.3c.42-.6.7-1,1-1.38,4.53-6.78,9-13.57,13.59-20.31.67-1,.4-1.4-.44-1.95a32,32,0,0,0-25.52-4.54,53.9,53.9,0,0,0-6,2.1Zm-18.08,7.21-14-21c-.21.15-.33.2-.39.29-3.85,5.93-6.13,12.31-5.64,19.5.07,1,.37,1.29,1.35,1.28,4.83-.05,9.66,0,14.5,0Zm49,0L338.35,495H338l-9.53,14.47Z" transform="translate(-101.01 -254.52)"/><path class="cls-1" d="M190.59,640.6H152c-2.29,0-2.54-.25-2.54-2.53,0-4.63,0-9.27,0-13.9,0-1.72.4-2.09,2.13-2.09h78c1.73,0,2.1.36,2.1,2.1q0,7.14,0,14.26c0,1.82-.34,2.16-2.18,2.16Z" transform="translate(-101.01 -254.52)"/><path class="cls-1" d="M174.52,672.27H151.74c-2,0-2.28-.24-2.28-2.26,0-4.76,0-9.51,0-14.27,0-1.51.39-1.93,1.9-1.93h46.4c1.52,0,2,.49,2,2q0,7.2,0,14.39c0,1.59-.47,2-2.1,2Z" transform="translate(-101.01 -254.52)"/><path class="cls-1" d="M231.68,663.05c0,2.48,0,5,0,7.43,0,1.36-.45,1.84-1.76,1.84H215.06c-1.26,0-1.75-.5-1.76-1.73q0-7.56,0-15.11c0-1.29.46-1.75,1.71-1.75q7.5,0,15,0c1.27,0,1.68.45,1.68,1.76C231.69,658,231.68,660.53,231.68,663.05Z" transform="translate(-101.01 -254.52)"/><path class="cls-1" d="M334.35,392.4l70.74-70.75c-.36,0-.76-.08-1.16-.08H391.22c-1.86,0-2.15-.3-2.15-2.15V304.9c0-1.59.33-2,1.92-2.09,2.95-.14,5.9-.25,8.86-.26q14.5,0,29,0a15.41,15.41,0,0,1,3.32.35c4.55,1,7.07,4.08,7.18,8.88.11,4.6.06,9.2.06,13.79q0,12.66,0,25.31c0,1.9-.25,2.16-2.12,2.16H422.68c-1.65,0-2.06-.41-2.07-2.17,0-4.76,0-9.51,0-14.27v-1.69c-.6.55-1,.87-1.3,1.21l-49.95,50Q356,399.41,342.71,412.69c-2,2-4.14,3.76-7,4.44a6.68,6.68,0,0,1-5.9-1.2,34.24,34.24,0,0,1-5.22-5.06c-7.51-9.24-14.92-18.56-22.37-27.85-.18-.22-.37-.42-.72-.83-1.42,1.46-2.8,2.89-4.19,4.3q-7.83,7.93-15.68,15.86L270,414.08c-1.28,1.28-1.76,1.27-3.06,0L256.56,403.7c-1.39-1.39-1.42-1.76-.09-3.28.9-1,1.81-2,2.76-3q17.16-17.18,34.37-34.32a24.35,24.35,0,0,1,5-3.83,7.34,7.34,0,0,1,8.36.51,24.82,24.82,0,0,1,4.57,4.36c7.39,9.07,14.7,18.22,22,27.35C333.86,391.83,334.15,392.16,334.35,392.4Z" transform="translate(-101.01 -254.52)"/><path class="cls-1" d="M401.89,432.75H367.12c-2,0-2.39-.34-2.39-2.34q0-6.84,0-13.67c0-2,.43-2.4,2.39-2.4H436.9c1.87,0,2.25.38,2.25,2.22,0,4.67,0,9.35,0,14,0,1.89-.25,2.16-2.13,2.16Z" transform="translate(-101.01 -254.52)"/><path class="cls-1" d="M406,496.74H375c-1.76,0-2.22-.44-2.22-2.16q0-7,0-14c0-1.74.44-2.16,2.21-2.16h62.08c1.86,0,2.26.39,2.26,2.22q0,7,0,14c0,1.66-.45,2.11-2.13,2.11Z" transform="translate(-101.01 -254.52)"/><path class="cls-1" d="M418.22,446.49h18.93c1.66,0,2,.36,2,2q0,7.25,0,14.5c0,1.64-.42,2-2.06,2h-38c-1.68,0-2.11-.43-2.11-2.12V448.57c0-1.7.4-2.08,2.13-2.08Z" transform="translate(-101.01 -254.52)"/><path class="cls-1" d="M418.08,400.85H399c-1.68,0-2-.33-2-2.05q0-7.12,0-14.26c0-1.64.39-2,2.05-2H437.3c1.67,0,2.07.41,2.07,2q0,7.13,0,14.26c0,1.7-.33,2-2,2.05Z" transform="translate(-101.01 -254.52)"/></svg>