<svg id="Calque_3" data-name="Calque 3" xmlns="http://www.w3.org/2000/svg" viewBox="0 0 322.34 306.21"><defs><style>.cls-1{fill:#575757;}</style></defs><path class="cls-1" d="M385.43,569.64H167.89l-2.2-.32q-18.16-2.67-26.13-19.2c-2.65-5.5-3.09-11.41-3.09-17.4q0-109.17,0-218.34c0-1.51.09-3,.24-4.54q1.8-17.44,17-26.28a27.7,27.7,0,0,1,16.06-3.83c1,.06,1.67.43,1.67,1.47,0,4.27,0,8.55-.09,12.82a4.8,4.8,0,0,1-3.72,4.46c-.92.26-1.85.5-2.74.85-4.36,1.7-7.7,4.47-8.79,9.21a30,30,0,0,0-.63,6.29c-.08,7.39-.05,14.78-.06,22.17,0,1.91,0,3.81,0,5.83H438.22c1.68,0,1.7,0,1.7-1.71q0-12.48,0-24.94a44.41,44.41,0,0,0-.23-4.9,13.25,13.25,0,0,0-7.35-10.94,27.07,27.07,0,0,0-4.57-1.74,4.9,4.9,0,0,1-3.88-5.07c0-4,0-8.07,0-12.11,0-1.33.45-1.89,1.75-1.88a28.2,28.2,0,0,1,6,.32c11.61,2.58,20,9.19,24.65,20.26,2.2,5.25,2.59,10.8,2.59,16.44q-.06,107.79,0,215.58c0,2.35,0,4.72-.25,7.06A31.41,31.41,0,0,1,452,556.42a33.1,33.1,0,0,1-26.84,13c-12.75,0-25.5,0-38.25,0A9.6,9.6,0,0,0,385.43,569.64ZM155.35,362.39v1.82q0,84.24,0,168.47c0,1.64.09,3.28.25,4.9.66,6.37,4.44,10.88,10.51,12.33a25.66,25.66,0,0,0,5.93.64q125.43,0,250.87,0a36.2,36.2,0,0,0,4.65-.31,13.06,13.06,0,0,0,11.62-10.51,26.82,26.82,0,0,0,.69-5.92q.06-84.84,0-169.67c0-1.76,0-1.76-1.72-1.76H155.35Z" transform="translate(-136.47 -263.44)"/><path class="cls-1" d="M297.65,279.69h78.66c2.34,0,2.41.07,2.41,2.45v13.07c0,2.69,0,2.7-2.66,2.7H218.87c-2.22,0-2.47-.24-2.47-2.46V281.9c0-1.88.33-2.21,2.24-2.21Z" transform="translate(-136.47 -263.44)"/><path class="cls-1" d="M203.27,288.88c0,5,0,10.07,0,15.1,0,3.89-1.41,7.13-4.9,9.13a9.31,9.31,0,0,1-13.85-7.9c-.11-7.46-.18-14.93-.17-22.4a113.68,113.68,0,0,1,.4-11.83c.45-4.37,4.13-7.37,8.57-7.54,4.66-.17,8.44,2.48,9.5,6.79a17.29,17.29,0,0,1,.44,3.79C203.29,279,203.27,283.93,203.27,288.88Z" transform="translate(-136.47 -263.44)"/><path class="cls-1" d="M410.74,288.74c0,5.32,0,10.63,0,15.94s-3.45,9.06-8.5,9.55a9.26,9.26,0,0,1-10-7.81,20.13,20.13,0,0,1-.24-3.1c0-9.71,0-19.42,0-29.12a16.07,16.07,0,0,1,.76-4.93c1.48-4.31,5.78-6.46,10.78-5.6,4.23.72,7.14,4.33,7.19,9C410.77,278,410.74,283.39,410.74,288.74Z" transform="translate(-136.47 -263.44)"/><path class="cls-1" d="M297.56,391h15c10.75,0,18.06,6.83,18.54,17.65a168.93,168.93,0,0,1-.2,17.72,16.64,16.64,0,0,1-16.31,15.36q-14.26.18-28.53.16a47.59,47.59,0,0,1-8.69-.65c-6.89-1.3-12.54-7.38-12.93-14.39a181.32,181.32,0,0,1,0-20.59c.46-7.59,7.08-14.26,14.69-14.95,5.31-.49,10.69-.25,16-.34h2.4Zm14.22,31.68V410.43a6.5,6.5,0,0,0-.66-.07c-8.87,0-17.74,0-26.61,0-.93,0-1,.45-1,1.18,0,3.28.05,6.56,0,9.83,0,1.09.29,1.43,1.41,1.42,8.55,0,17.1,0,25.65,0C310.92,422.74,311.32,422.71,311.78,422.69Z" transform="translate(-136.47 -263.44)"/><path class="cls-1" d="M201.82,391h15.7a17.55,17.55,0,0,1,17.76,17.58q.06,7.91,0,15.81c-.07,8.56-5.49,15.45-13.7,17a58.71,58.71,0,0,1-10,.6c-7.12.07-14.23.07-21.34-.06a41.22,41.22,0,0,1-9.38-.86c-7-1.79-11.14-6.66-12.07-13.65-.7-5.19-.42-10.52-.43-15.78a34,34,0,0,1,.6-7.13A17.29,17.29,0,0,1,185.63,391C191,391,196.42,391,201.82,391Zm14.07,31.84V410.44h-28.1v12.41Z" transform="translate(-136.47 -263.44)"/><path class="cls-1" d="M393.38,521.63H377.8c-9.19,0-16.28-5.79-17.59-14.86a81,81,0,0,1-.37-12.08,70.9,70.9,0,0,1,.51-9.78c1.07-7.27,7.69-13.22,15-13.8,1.63-.13,3.27-.21,4.91-.21q14.61,0,29.24.06a17.23,17.23,0,0,1,17.37,17.34c0,5.31,0,10.61,0,15.92a17.26,17.26,0,0,1-17.32,17.4C404.17,521.67,398.78,521.63,393.38,521.63Zm14.07-19.1V490.21c-.26,0-.42-.07-.58-.07-8.87,0-17.74,0-26.61,0-.87,0-1.08.34-1.08,1.13,0,3.28.06,6.56,0,9.83,0,1.16.33,1.48,1.48,1.48,8.51-.05,17,0,25.54,0Z" transform="translate(-136.47 -263.44)"/><path class="cls-1" d="M393.47,391h15.7a17.59,17.59,0,0,1,17.71,17.74c0,5.39.06,10.78,0,16.17a16.9,16.9,0,0,1-13.71,16.49,15.6,15.6,0,0,1-3,.32c-9.22.09-18.45.19-27.68.17a50.73,50.73,0,0,1-9.06-.59,16.24,16.24,0,0,1-13.12-13.42,36.64,36.64,0,0,1-.47-6.19c0-4.79,0-9.59.19-14.38a17.26,17.26,0,0,1,14.74-16.05,43.71,43.71,0,0,1,5.49-.29c4.4,0,8.79,0,13.19,0Zm14,31.9V410.42a4.16,4.16,0,0,0-.52-.08c-8.94,0-17.88,0-26.82,0-.87,0-1,.41-1,1.1,0,3.35.06,6.71,0,10.06,0,1.18.37,1.46,1.5,1.45,8.5,0,17,0,25.5,0Z" transform="translate(-136.47 -263.44)"/><path class="cls-1" d="M201.83,521.63c-5.24,0-10.47,0-15.71,0-9.34,0-16.5-6.16-17.6-15.44a93.54,93.54,0,0,1-.28-11.61,70.6,70.6,0,0,1,.45-9.2,16.87,16.87,0,0,1,15.22-14.28c1.47-.13,3-.2,4.43-.2q14.15,0,28.3,0c4.65,0,9,1.1,12.56,4.18a16.22,16.22,0,0,1,6,12.32c.15,6,.14,12,0,18a17,17,0,0,1-14.58,16,30.37,30.37,0,0,1-3.82.24C211.82,521.65,206.83,521.63,201.83,521.63Zm0-31.61c-4.31,0-8.63,0-12.94,0-.94,0-1.24.28-1.22,1.23.05,3.35,0,6.71,0,10.06,0,.84.18,1.22,1.12,1.22q13,0,26.11,0c.84,0,1.11-.27,1.1-1.1,0-3.4,0-6.79,0-10.19,0-1-.33-1.22-1.24-1.21C210.45,490,206.13,490,201.82,490Z" transform="translate(-136.47 -263.44)"/><path class="cls-1" d="M297.57,521.63H281.86c-8.8,0-15.7-5.59-17.35-14.19a36.26,36.26,0,0,1-.4-6.92c0-4.84-.09-9.68.28-14.49.6-7.75,7.39-14.27,15.13-14.92,1.59-.13,3.19-.21,4.79-.21q14.51,0,29,.06c10,.05,17.34,6.94,17.72,17,.23,6.06.16,12.15-.14,18.21-.38,7.64-6.87,14.27-14.53,15.26a28.56,28.56,0,0,1-3.58.23C307.72,521.65,302.65,521.63,297.57,521.63Zm14-31.54a4.15,4.15,0,0,0-.49-.1q-13.35,0-26.71,0c-.87,0-.95.43-.94,1.12,0,3.43,0,6.86,0,10.3,0,.87.23,1.17,1.14,1.17q13,0,26,0c.93,0,1.14-.32,1.13-1.18,0-3.43,0-6.87,0-10.3C311.68,490.76,311.62,490.45,311.59,490.09Z" transform="translate(-136.47 -263.44)"/></svg>