<svg id="Calque_4" data-name="Calque 4" xmlns="http://www.w3.org/2000/svg" viewBox="0 0 296.16 385.91"><defs><style>.cls-1{fill:#575757;}</style></defs><path class="cls-1" d="M132.19,352q0-38.13,0-76.28,0-38.31-.08-76.64c0-5.07-.13-10.15,0-15.23.23-6.78,1.91-13.12,6.71-18.24a26.37,26.37,0,0,1,11.55-7,4.86,4.86,0,0,1,1.43-.13q128.42,0,256.85,0a5.25,5.25,0,0,1,2.16.5,76.52,76.52,0,0,1,6.93,3.54c6.83,4.19,10.4,10.39,10.41,18.4q.07,67.88,0,135.77A13.28,13.28,0,0,1,427,322c-1.6,3.54-5,5.1-9.15,4.62a8.44,8.44,0,0,1-7-6.79,16.28,16.28,0,0,1-.33-3.56q0-65.19,0-130.38a38.88,38.88,0,0,0-.22-4.18c-.38-3.53-2-4.93-5.93-5.23-.64-.05-1.28,0-1.92,0H157.93a23.37,23.37,0,0,0-3.34.26,4.55,4.55,0,0,0-4.31,4.25,20.59,20.59,0,0,0-.27,3.33q0,167.27,0,334.52a22.25,22.25,0,0,0,.47,4.14,4,4,0,0,0,3.37,3.31,20.33,20.33,0,0,0,3.79.46q122.61,0,245.22,0a16.09,16.09,0,0,0,2.86-.25c2.9-.52,4.19-1.91,4.55-4.9a30.49,30.49,0,0,0,.22-3.7q0-47.75,0-95.47c0-11.91-.13-23.82-.18-35.74a10.19,10.19,0,0,1,3.91-8.37,7.83,7.83,0,0,1,8.76-1.06,8.63,8.63,0,0,1,5.21,7.47,9.73,9.73,0,0,1,0,1.08q0,67.35,0,134.69c0,6.42-1.81,12.22-6.31,17a22.36,22.36,0,0,1-13.69,6.74,42,42,0,0,1-5.5.29l-245.7,0a26.82,26.82,0,0,1-13-2.92c-6.62-3.56-10.14-9.29-11.33-16.56a39.18,39.18,0,0,1-.42-6.32Q132.18,435.35,132.19,352Z" transform="translate(-132.06 -158.53)"/><path class="cls-1" d="M280.3,276.68q-50.36,0-100.71,0a21.91,21.91,0,0,1-4.05-.32c-4.34-.82-6.67-3.59-6.95-8.19-.11-1.76-.17-3.51-.18-5.27q0-28.84,0-57.68a30.27,30.27,0,0,1,.4-4.76,8.05,8.05,0,0,1,7.44-7.13,30.43,30.43,0,0,1,3.94-.26q100.05,0,200.09,0a22.91,22.91,0,0,1,4.75.46,8,8,0,0,1,6.7,7.44,30.76,30.76,0,0,1,.25,3.58q0,30.88,0,61.76a17.82,17.82,0,0,1-.4,3.56,7.64,7.64,0,0,1-7.1,6.55,30.34,30.34,0,0,1-3.81.25Q330.48,276.7,280.3,276.68Zm93.4-18.07v-45.8c0-1.57,0-1.57-1.57-1.57H188.33c-1.57,0-1.58,0-1.58,1.58v44.25c0,1.54,0,1.54,1.6,1.54H373.7Z" transform="translate(-132.06 -158.53)"/><path class="cls-1" d="M221.76,400q-21.21,0-42.44,0a18.13,18.13,0,0,1-3.68-.33,8.35,8.35,0,0,1-7-8.09c-.11-1.48-.18-2.95-.18-4.43q0-37.23,0-74.46a25.74,25.74,0,0,1,.41-4.64,8.13,8.13,0,0,1,7.45-7,32.83,32.83,0,0,1,3.7-.24q42.2,0,84.4,0a16.52,16.52,0,0,1,3.44.34c4.78,1,7.11,4.28,7.12,9.9q0,14.09,0,28.18,0,25.07,0,50.12a17.38,17.38,0,0,1-.57,4.49c-1.06,3.9-4.19,6.05-8.83,6.13-4.44.08-8.87,0-13.31,0Zm-35-80.87v62.4h70v-62.4Z" transform="translate(-132.06 -158.53)"/><path class="cls-1" d="M221.71,410.82q21.35,0,42.68,0a18.54,18.54,0,0,1,3.8.35,7.93,7.93,0,0,1,6.5,7.22,28.51,28.51,0,0,1,.25,3.7q0,38.49,0,77a19.41,19.41,0,0,1-.3,3.57c-.81,4.3-3.58,6.77-7.95,7.17-1.27.11-2.55.17-3.83.17q-41.48,0-83,0a20.64,20.64,0,0,1-4.16-.37,8.33,8.33,0,0,1-7.15-8.12c-.11-1.39-.18-2.79-.18-4.19q0-37.35,0-74.7a24.88,24.88,0,0,1,.36-4.4c.82-4.47,3.78-7,8.34-7.33.72-.05,1.44-.06,2.16-.06Zm35,80.81V429.09h-70v62.54Z" transform="translate(-132.06 -158.53)"/><path class="cls-1" d="M338.5,400q-21.22,0-42.44,0a17.76,17.76,0,0,1-3.57-.32c-4.12-.85-6.55-3.75-6.87-8.09,0-.44-.05-.88-.06-1.32q-.06-34-.11-68.1c0-3.84.05-7.68.13-11.51a14.15,14.15,0,0,1,.41-3.31,7.93,7.93,0,0,1,7.13-6.3,28.7,28.7,0,0,1,3.58-.24q42.27,0,84.53,0a17.37,17.37,0,0,1,3.45.31c4.75,1,7.25,4.3,7.29,9.68,0,4.15,0,8.31,0,12.47q0,33.09,0,66.19a16.14,16.14,0,0,1-.32,3.33c-1,4.69-4.26,7.16-9.63,7.2-6.71,0-13.43,0-20.14,0Zm-35-80.84c0,.47-.05.79-.05,1.1q0,30.17,0,60.31c0,1,.36,1.26,1.31,1.26q33.81,0,67.61,0c1.07,0,1.33-.31,1.33-1.36q0-30,0-60.07c0-.42,0-.84-.05-1.25Z" transform="translate(-132.06 -158.53)"/><path class="cls-1" d="M338.69,410.82q21.29,0,42.56,0a17.7,17.7,0,0,1,3.91.38,7.94,7.94,0,0,1,6.56,7.56c.26,3.18.27,6.38.27,9.58q0,35.55,0,71.1a16.58,16.58,0,0,1-.56,4.14c-.94,3.65-3.84,5.9-7.89,6.23-1.39.11-2.79.17-4.19.17H297.09a24.28,24.28,0,0,1-4.17-.35c-4.69-.87-7.14-3.71-7.3-8.52-.13-3.63-.17-7.27-.17-10.9q0-28.49,0-57,0-6.4.13-12.82a14.86,14.86,0,0,1,.34-3c.9-4,3.83-6.36,8.18-6.6,1.47-.08,2.95-.06,4.43-.06Zm.08,18.19q-16.9,0-33.81,0c-1.06,0-1.44.24-1.44,1.38q0,30,0,60c0,1.14.37,1.39,1.44,1.39q33.69,0,67.38,0c1.12,0,1.5-.26,1.5-1.44q0-29.92,0-59.84c0-1.19-.37-1.46-1.5-1.45Q355.55,429,338.77,429Z" transform="translate(-132.06 -158.53)"/><path class="cls-1" d="M428.21,351.36a9,9,0,0,1-8.81,9,8.86,8.86,0,0,1-8.89-9,8.56,8.56,0,0,1,8.83-8.84A8.67,8.67,0,0,1,428.21,351.36Z" transform="translate(-132.06 -158.53)"/><path class="cls-1" d="M212.93,341.31c0-2.23,0-4.26,0-6.29.09-4.77,3.17-8.3,7.65-8.81a8.72,8.72,0,0,1,9.86,6.94,17.89,17.89,0,0,1,.3,3.2c0,1.6,0,3.19,0,5,1.31,0,2.54-.05,3.76,0a27.2,27.2,0,0,1,4.62.47,8.59,8.59,0,0,1,6.94,8.82,8.7,8.7,0,0,1-7.48,8.53,44.77,44.77,0,0,1-6.56.31c-1,0-1.29.28-1.31,1.28a39.72,39.72,0,0,1-.42,6.91,8.73,8.73,0,0,1-12.95,6c-3.12-1.69-4.12-4.63-4.39-7.9a44.43,44.43,0,0,1-.06-5c0-1-.34-1.22-1.25-1.23a41.55,41.55,0,0,1-6.8-.32,8.62,8.62,0,0,1-7.07-6.09,8.38,8.38,0,0,1,1.89-8.57c2.06-2.29,4.8-3.06,7.77-3.15C209.19,341.27,211,341.31,212.93,341.31Z" transform="translate(-132.06 -158.53)"/><path class="cls-1" d="M222.05,448.4c1-1.36,1.93-2.59,2.9-3.75,1.91-2.29,4.21-3.91,7.31-4.06a8.49,8.49,0,0,1,8,4.21,8.32,8.32,0,0,1,.27,8.77,16.5,16.5,0,0,1-4.78,5.13c-.61.5-1.24,1-2,1.54,1.17,1,2.25,1.87,3.28,2.79,2.18,2,3.94,4.19,4.4,7.21A8.28,8.28,0,0,1,238,478.4a8,8,0,0,1-8.36,1.07,16.19,16.19,0,0,1-6-4.67c-.65-.7-1.27-1.43-2-2.23-1.25,1.45-2.42,2.86-3.66,4.2-2.44,2.64-5.42,4-9,3.17a8.7,8.7,0,0,1-6.78-6.57c-1-3.52.36-6.46,2.92-8.84,1.51-1.41,3.2-2.63,4.93-4-.59-.49-1.18-.94-1.72-1.45a43.58,43.58,0,0,1-4.62-4.49,8.28,8.28,0,0,1,.46-10.87c3-3.31,7.39-4.18,11-1.9a30.05,30.05,0,0,1,4.4,3.84C220.42,446.45,221.16,447.4,222.05,448.4Z" transform="translate(-132.06 -158.53)"/><path class="cls-1" d="M338.68,359.44c-4.95,0-9.9,0-14.85,0a9.28,9.28,0,0,1-9-6,8.86,8.86,0,0,1,7.59-11.9,30.45,30.45,0,0,1,3.58-.23c8.78,0,17.57,0,26.36,0a15.27,15.27,0,0,1,4.69.78,8.75,8.75,0,0,1-.61,16.76,21.09,21.09,0,0,1-5,.57c-4.28.07-8.55,0-12.83,0Z" transform="translate(-132.06 -158.53)"/><path class="cls-1" d="M338.62,480c-4.79,0-9.58,0-14.38,0a10.09,10.09,0,0,1-7.05-2.52,8.59,8.59,0,0,1-2.39-9.31c1.05-3.55,3.71-5.43,7.24-5.94a46.41,46.41,0,0,1,6.57-.27q12.17,0,24.32,0a10.16,10.16,0,0,1,7.9,3.09c4.52,5,2,12.82-4.77,14.5a21.75,21.75,0,0,1-5,.49c-4.15.07-8.31,0-12.46,0Z" transform="translate(-132.06 -158.53)"/><path class="cls-1" d="M338.63,439.17c5.19,0,10.39-.06,15.58,0a8.84,8.84,0,0,1,7.78,13,8.22,8.22,0,0,1-7.36,4.62q-16,.13-32,0c-4.76,0-8.31-4-8.28-8.92a8.7,8.7,0,0,1,8.44-8.7c2.63-.07,5.27-.05,7.9-.06h7.91Z" transform="translate(-132.06 -158.53)"/></svg>